<?xml version="1.0" encoding="utf-8"?><!-- Uploaded to: SVG Repo, www.svgrepo.com, Generator: SVG Repo Mixer Tools -->
<svg version="1.1" id="designs" xmlns="http://www.w3.org/2000/svg" xmlns:xlink="http://www.w3.org/1999/xlink" 
	 width="800px" height="800px" viewBox="0 0 32 32" xml:space="preserve">
<style type="text/css">
	.sketchy_een{fill:#fff;}
</style>
<path class="sketchy_een" d="M25.558,19.689c0.001-0.001,0.001-0.002,0.002-0.002C25.559,19.688,25.559,19.688,25.558,19.689
	L25.558,19.689z M25.432,19.854c0.001-0.001,0.002-0.002,0.003-0.003c0.008-0.01,0.016-0.021,0.024-0.031
	C25.45,19.831,25.441,19.842,25.432,19.854z M17.571,28.27c-0.001,0.001-0.002,0.002-0.003,0.003
	c-0.028,0.036-0.055,0.071-0.082,0.107C17.514,28.344,17.543,28.307,17.571,28.27z M17.573,28.267L17.573,28.267
	c-0.001,0.001-0.001,0.002-0.002,0.003C17.572,28.269,17.572,28.268,17.573,28.267z M25.557,19.69
	C25.557,19.69,25.558,19.69,25.557,19.69c0,0,0,0.001-0.001,0.001c-0.018,0.025-0.037,0.051-0.057,0.076
	c-0.006,0.008-0.012,0.016-0.019,0.024c0.025-0.033,0.05-0.066,0.074-0.098c-0.04,0.052-0.08,0.105-0.12,0.157
	c-0.001,0.001-0.002,0.003-0.003,0.004c-0.596,0.784-1.165,1.588-1.742,2.386c-0.494,0.681-1.002,1.353-1.49,2.04
	c-0.492,0.693-0.961,1.403-1.417,2.121c-0.427,0.671-0.851,1.344-1.316,1.99c-0.468,0.643-0.964,1.264-1.419,1.917
	c-0.038,0.054-0.084,0.095-0.127,0.141c-0.041,0.114-0.101,0.221-0.188,0.308C17.577,30.911,17.363,31,17.142,31
	c-0.236,0-0.411-0.097-0.589-0.244c-0.131-0.109-0.238-0.258-0.357-0.383c-0.131-0.139-0.264-0.278-0.395-0.419
	c-0.27-0.292-0.54-0.589-0.83-0.861c-0.276-0.26-0.558-0.516-0.822-0.79c-0.27-0.282-0.538-0.564-0.808-0.847
	c-0.583-0.605-1.201-1.173-1.784-1.778c-0.583-0.605-1.133-1.24-1.689-1.871C9.581,23.483,9.293,23.159,9,22.838
	c-0.272-0.294-0.564-0.566-0.826-0.869c-0.562-0.655-1.123-1.312-1.675-1.975c-0.147-0.177-0.246-0.355-0.246-0.593
	c0-0.222,0.089-0.437,0.246-0.593c0.107-0.107,0.245-0.168,0.39-0.205c0.151-0.239,0.402-0.412,0.699-0.412c0.005,0,0.009,0,0.014,0
	c0.601,0.01,1.201,0.042,1.804,0.071c0.506,0.022,1.012,0.012,1.518,0.008c0.028,0,0.052,0.013,0.079,0.016
	c0.018-0.36,0.039-0.719,0.043-1.079c0.004-0.56,0.002-1.123-0.004-1.683c-0.012-1.135-0.04-2.272-0.06-3.407
	c-0.006-0.419-0.01-0.839-0.018-1.256c-0.01-0.407-0.03-0.816-0.026-1.224c0.008-0.828,0.022-1.655,0.032-2.481
	c0.008-0.828,0.048-1.657,0.065-2.485c0.016-0.897,0.04-1.796,0.075-2.693c0.016-0.46,0.371-0.845,0.845-0.845
	c0.14,0,0.272,0.049,0.396,0.117c1.263-0.108,2.531-0.146,3.797-0.157c0.627-0.006,1.252-0.032,1.879-0.046
	c0.337-0.008,0.675-0.006,1.012-0.022C19.27,1.014,19.504,1,19.738,1c0.059,0,0.119,0.001,0.178,0.003
	c0.272,0.009,0.506,0.145,0.663,0.344c0.304,0.126,0.525,0.425,0.522,0.77c-0.006,1.217-0.04,2.433-0.014,3.652
	c0.024,1.159,0.028,2.318,0.024,3.477c-0.002,0.81-0.016,1.621-0.01,2.433c0.004,0.841,0.02,1.681,0.024,2.522
	c0.004,0.802,0.016,1.604,0.026,2.407c0.009,0.596,0.011,1.192,0.023,1.787c0.036,0,0.072,0.002,0.108,0.001
	c0.403-0.012,0.808-0.034,1.211-0.054c0.788-0.04,1.578-0.085,2.366-0.123c0.011,0,0.021-0.001,0.032-0.001
	c0.318,0,0.593,0.222,0.71,0.506c0.085,0.135,0.144,0.284,0.144,0.445C25.747,19.38,25.671,19.532,25.557,19.69
	C25.558,19.69,25.557,19.69,25.557,19.69z M22.601,20.967c0.256-0.371,0.509-0.744,0.766-1.114c-0.29,0.007-0.581,0.012-0.871,0.023
	c-0.824,0.034-1.647,0.087-2.471,0.091c-0.431,0.002-0.79-0.361-0.79-0.79c0-0.224,0.102-0.427,0.258-0.572
	c0.051-2.121,0.044-4.245,0.044-6.366c-0.002-1.657-0.01-3.314-0.02-4.971c-0.009-1.522-0.055-3.043-0.073-4.565
	c-0.48-0.011-0.96-0.024-1.441-0.021c-0.619,0.004-1.238,0.026-1.856,0.036c-1.135,0.019-2.268,0.1-3.399,0.204
	c-0.017,0.316-0.035,0.631-0.05,0.947c-0.03,0.585-0.04,1.169-0.065,1.754c-0.024,0.568-0.03,1.137-0.044,1.705
	c-0.016,0.581-0.042,1.163-0.054,1.746c-0.016,0.806,0.016,1.613,0.026,2.419c0.012,0.839,0.022,1.679,0.04,2.52
	c0.018,0.835,0.05,1.669,0.054,2.505c0.002,0.782-0.06,1.566-0.028,2.346c0.016,0.447-0.389,0.822-0.822,0.822
	c-0.097,0-0.189-0.025-0.277-0.057c-0.151,0.166-0.363,0.275-0.602,0.282c-0.781,0.021-1.563,0.016-2.345,0.009
	c0.217,0.274,0.432,0.551,0.657,0.818c0.266,0.316,0.556,0.605,0.839,0.905c0.258,0.274,0.504,0.56,0.75,0.847
	c0.554,0.641,1.101,1.294,1.689,1.905c0.581,0.603,1.197,1.173,1.778,1.778c0.284,0.296,0.566,0.599,0.855,0.891
	c0.286,0.288,0.587,0.56,0.885,0.835c0.308,0.282,0.595,0.587,0.887,0.885c0.047,0.049,0.098,0.095,0.144,0.144
	c0.012-0.016,0.024-0.031,0.036-0.047c-0.012,0.016-0.024,0.031-0.036,0.047c0,0,0,0,0,0c0.141-0.183,0.282-0.364,0.423-0.547
	c-0.011,0.015-0.022,0.03-0.033,0.045c0.039-0.05,0.077-0.101,0.116-0.151c0.002-0.002,0.003-0.004,0.005-0.006
	c0.001-0.002,0.003-0.004,0.004-0.006c-0.001,0.002-0.003,0.003-0.004,0.005c0.269-0.353,0.535-0.707,0.786-1.072
	c0.468-0.677,0.899-1.377,1.349-2.066c0.464-0.716,0.941-1.423,1.435-2.117C21.631,22.332,22.127,21.658,22.601,20.967z"/>
</svg>